<svg width="220" height="46" viewBox="0 0 220 46" fill="none" xmlns="http://www.w3.org/2000/svg">
<path d="M69.1343 16.7602V4.31633H74.7844V16.7602H78.9187V0.688775H65V16.7602H69.1343Z" fill="#312D2C"/>
<path d="M94.4046 16.7602V13.1327H86.1361V9.98724H92.5672V6.49745H86.1361V4.31633H94.2209V0.688775H82.0018V16.7602H94.4046Z" fill="#312D2C"/>
<path d="M100.872 16.7602V10.7679H103.904C105.696 10.7679 107.12 10.3087 108.176 9.36735C109.233 8.42602 109.761 7.20918 109.761 5.71684C109.761 4.22449 109.233 3.03061 108.176 2.08928C107.12 1.14796 105.696 0.688775 103.904 0.688775H96.7382V16.7602H100.872ZM100.872 4.17857H103.606C104.823 4.17857 105.581 4.75255 105.581 5.76275C105.581 6.77296 104.8 7.3699 103.606 7.3699H100.872V4.17857Z" fill="#312D2C"/>
<path d="M123.134 17.449V15.6582C125.545 15.5434 127.406 14.7857 128.761 13.4082C130.116 12.0077 130.782 10.4005 130.782 8.54082C130.782 6.68112 130.116 5.07398 128.761 3.69643C127.406 2.29592 125.545 1.53826 123.134 1.42347V0H118.977V1.42347C116.565 1.53826 114.705 2.29592 113.349 3.69643C111.994 5.07398 111.328 6.68112 111.328 8.54082C111.328 10.4005 111.994 12.0077 113.349 13.4082C114.705 14.7857 116.565 15.5434 118.977 15.6582V17.449H123.134ZM118.977 11.9847C116.955 11.8929 115.6 10.6531 115.6 8.54082C115.6 6.42857 116.955 5.16582 118.977 5.09694V11.9847ZM123.134 5.09694C125.155 5.16582 126.51 6.42857 126.51 8.54082C126.51 10.6531 125.178 11.8929 123.134 11.9847V5.09694Z" fill="#312D2C"/>
<path d="M138.282 11.9847C137.478 11.1352 137.088 10.0332 137.088 8.72449C137.088 7.41582 137.478 6.31378 138.282 5.46429C139.086 4.6148 140.096 4.17857 141.314 4.17857C142.531 4.17857 143.519 4.6148 144.322 5.46429C145.126 6.31378 145.54 7.41582 145.54 8.72449C145.54 10.0332 145.126 11.1352 144.322 11.9847C143.519 12.8342 142.531 13.2704 141.314 13.2704C140.096 13.2704 139.086 12.8342 138.282 11.9847ZM147.377 14.648C148.985 13.0179 149.789 11.0434 149.789 8.72449C149.789 6.40561 148.985 4.43112 147.377 2.80102C145.769 1.17092 143.748 0.367346 141.314 0.367346C138.879 0.367346 136.858 1.17092 135.25 2.80102C133.642 4.43112 132.838 6.40561 132.838 8.72449C132.838 11.0434 133.642 13.0179 135.25 14.648C136.858 16.2781 138.879 17.0816 141.314 17.0816C143.748 17.0816 145.769 16.2781 147.377 14.648Z" fill="#312D2C"/>
<path d="M156.498 16.7602V6.95663L159.461 11.273H161.735L164.606 6.95663V16.7602H168.718V0.688775H164.629L160.541 6.8648L156.475 0.688775H152.364V16.7602H156.498Z" fill="#312D2C"/>
<path d="M174.843 16.7602L176.198 13.3622H182.17L183.525 16.7602H187.958L181.205 0.596938H177.232L170.479 16.7602H174.843ZM179.184 5.76275L180.861 10.0561H177.507L179.184 5.76275Z" fill="#312D2C"/>
<path d="M193.867 16.7602V10.0791H199.93V16.7602H204.064V0.688775H199.93V6.40561H193.867V0.688775H189.732V16.7602H193.867Z" fill="#312D2C"/>
<path d="M215.59 17.0816C217.221 17.0816 218.691 16.7372 220 16.0714V11.9847C218.875 12.8342 217.474 13.2704 215.774 13.2704C214.373 13.2704 213.201 12.8571 212.26 12.0077C211.341 11.1582 210.882 10.0561 210.882 8.72449C210.882 7.41582 211.341 6.31378 212.237 5.46429C213.133 4.6148 214.258 4.17857 215.613 4.17857C217.106 4.17857 218.461 4.56888 219.724 5.34949V1.28571C218.461 0.665816 217.083 0.367346 215.567 0.367346C212.995 0.367346 210.859 1.14796 209.159 2.70918C207.482 4.27041 206.633 6.26786 206.633 8.72449C206.633 11.1811 207.482 13.1786 209.182 14.7398C210.882 16.301 213.018 17.0816 215.59 17.0816Z" fill="#312D2C"/>
<path d="M69.1343 44.3112V37.1709L75.4275 44.3112H80.4576L73.0848 35.6327L79.3092 28.2398H74.348L69.1343 34.3699V28.2398H65V44.3112H69.1343Z" fill="#312D2C"/>
<path d="M84.9886 39.5357C84.1847 38.6862 83.7942 37.5842 83.7942 36.2755C83.7942 34.9668 84.1847 33.8648 84.9886 33.0153C85.7925 32.1658 86.8031 31.7296 88.0204 31.7296C89.2377 31.7296 90.2253 32.1658 91.0292 33.0153C91.8331 33.8648 92.2465 34.9668 92.2465 36.2755C92.2465 37.5842 91.8331 38.6862 91.0292 39.5357C90.2253 40.3852 89.2377 40.8214 88.0204 40.8214C86.8031 40.8214 85.7925 40.3852 84.9886 39.5357ZM94.084 42.199C95.6917 40.5689 96.4956 38.5944 96.4956 36.2755C96.4956 33.9566 95.6917 31.9821 94.084 30.352C92.4762 28.7219 90.455 27.9184 88.0204 27.9184C85.5857 27.9184 83.5645 28.7219 81.9568 30.352C80.349 31.9821 79.5451 33.9566 79.5451 36.2755C79.5451 38.5944 80.349 40.5689 81.9568 42.199C83.5645 43.8291 85.5857 44.6327 88.0204 44.6327C90.455 44.6327 92.4762 43.8291 94.084 42.199Z" fill="#312D2C"/>
<path d="M103.205 44.3112V37.6301H109.269V44.3112H113.403V28.2398H109.269V33.9566H103.205V28.2398H99.0709V44.3112H103.205Z" fill="#312D2C"/>
<path d="M127.777 45V43.2092C130.188 43.0944 132.049 42.3367 133.404 40.9592C134.759 39.5587 135.425 37.9515 135.425 36.0918C135.425 34.2321 134.759 32.625 133.404 31.2474C132.049 29.8469 130.188 29.0893 127.777 28.9745V27.551H123.62V28.9745C121.208 29.0893 119.347 29.8469 117.992 31.2474C116.637 32.625 115.971 34.2321 115.971 36.0918C115.971 37.9515 116.637 39.5587 117.992 40.9592C119.347 42.3367 121.208 43.0944 123.62 43.2092V45H127.777ZM123.62 39.5357C121.598 39.4439 120.243 38.2041 120.243 36.0918C120.243 33.9796 121.598 32.7168 123.62 32.648V39.5357ZM127.777 32.648C129.798 32.7168 131.153 33.9796 131.153 36.0918C131.153 38.2041 129.821 39.4439 127.777 39.5357V32.648Z" fill="#312D2C"/>
<path d="M148.735 44.3112L149.309 40.7525H152.18L151.606 44.3112H154.752L155.327 40.7525H158.427L158.933 37.6531H155.809L156.245 34.898H159.346L159.851 31.7985H156.751L157.302 28.2398H154.155L153.604 31.7985H150.733L151.284 28.2398H148.138L147.586 31.7985H144.463L143.98 34.898H147.081L146.645 37.6531H143.544L143.039 40.7525H146.162L145.588 44.3112H148.735ZM150.228 34.898H153.099L152.662 37.6531H149.791L150.228 34.898Z" fill="#312D2C"/>
<path d="M166.69 44.6327C169.24 44.6327 171.284 43.5077 172.455 41.7628C173.65 39.9949 174.247 37.8138 174.247 35.449C174.247 33.1301 173.673 31.3163 172.524 29.9617C171.376 28.6071 169.768 27.9184 167.678 27.9184C165.955 27.9184 164.508 28.4464 163.36 29.5255C162.234 30.5816 161.66 31.9592 161.66 33.6811C161.66 35.3112 162.143 36.5969 163.107 37.5383C164.072 38.4796 165.289 38.9617 166.759 38.9617C168.045 38.9617 169.125 38.5485 169.998 37.699C169.814 39.6275 168.321 41.0051 166.208 41.0051C165.037 41.0051 163.934 40.6607 162.946 39.949V43.5995C164.026 44.2883 165.266 44.6327 166.69 44.6327ZM167.908 35.8163C166.644 35.8163 165.771 34.8291 165.771 33.5663C165.771 32.2577 166.644 31.3622 167.93 31.3622C169.286 31.3622 170.181 32.4643 170.181 34.4158C169.653 35.3571 168.895 35.8163 167.908 35.8163Z" fill="#312D2C"/>
<path fill-rule="evenodd" clip-rule="evenodd" d="M0 22.7966V22.542C0.127479 16.3015 2.54958 10.6979 6.75638 6.62251C10.7082 2.67448 16.1898 0.127356 22.1813 0H22.5637H33.5269H45V11.7167V22.6693V23.4334C44.8725 29.4191 42.4504 34.7681 38.4986 38.7161C34.4193 42.7915 28.8102 45.3386 22.5637 45.3386C16.3173 45.3386 10.7082 42.7915 6.62889 38.7161C2.54957 34.6407 0 29.0371 0 22.7966ZM36.8525 15.8403C37.4011 15.5672 37.9497 15.294 38.4971 15.0221C38.4971 15.0071 38.4971 14.9871 38.5021 14.9722C38.3348 14.7065 38.1734 14.4361 38.0119 14.1656C37.6791 13.608 37.3461 13.05 36.9607 12.5327C34.1592 8.77627 30.4288 6.49646 25.7997 5.6883C25.358 5.61006 24.9094 5.56198 24.4617 5.51399L24.4617 5.51399L24.4617 5.51399C24.2528 5.4916 24.0442 5.46924 23.8366 5.44386H21.8785C21.6911 5.46576 21.5036 5.4858 21.3164 5.5058C20.8216 5.55869 20.3282 5.61141 19.8401 5.69828C16.426 6.29691 13.4437 7.77854 10.9133 10.1332C8.25228 12.6075 6.52014 15.6257 5.75197 19.1726C5.63554 19.7195 5.56622 20.2762 5.49696 20.8324C5.46766 21.0677 5.43837 21.3029 5.40554 21.5372C5.39803 21.5895 5.39052 21.6429 5.38301 21.6964L5.38295 21.6969C5.37541 21.7505 5.36788 21.8041 5.36035 21.8565V23.8021C5.38707 24.0144 5.40999 24.2274 5.43294 24.4406L5.43294 24.4406C5.47467 24.8284 5.51647 25.2167 5.58126 25.603C6.19379 29.2796 7.83556 32.4374 10.4564 35.0914C10.6395 35.2772 10.8317 35.454 11.0471 35.6521C11.1092 35.7093 11.1733 35.7682 11.2396 35.8297V35.4605L11.2393 33.3577C11.2386 29.8532 11.2379 26.3487 11.2547 22.8442C11.2597 22.1159 11.325 21.3776 11.4605 20.6642C12.4546 15.4112 17.0084 11.4851 22.3906 11.3354C26.8942 11.2107 30.3434 13.1513 32.7684 16.9078C32.8727 17.0716 32.9657 17.2398 33.0596 17.4096L33.0596 17.4097L33.0597 17.4097C33.1058 17.4933 33.1522 17.5772 33.2002 17.661C33.5443 17.4901 33.8832 17.3205 34.2196 17.1521C34.5509 16.9863 34.8797 16.8217 35.2085 16.6583C35.7557 16.3865 36.3041 16.1134 36.8525 15.8403ZM21.8785 40.2147C21.7142 40.1958 21.5495 40.1777 21.3846 40.1596H21.3845C20.9851 40.1157 20.5845 40.0717 20.1865 40.0152C18.9163 39.8306 17.6862 39.4914 16.4913 39.0274C16.3658 38.9775 16.3105 38.9227 16.3105 38.778C16.3156 36.6927 16.3156 34.6025 16.3156 32.5172C16.3156 32.4773 16.3206 32.4374 16.3306 32.3676C19.2627 34.2483 22.4107 34.832 25.7696 33.959C29.1234 33.086 31.5635 31.0306 33.2053 27.9876C33.4814 28.1247 33.7563 28.2607 34.0312 28.3966C34.306 28.5326 34.5809 28.6685 34.8571 28.8057C36.0219 29.3844 37.1867 29.9681 38.3465 30.5517C38.3799 30.5684 38.4134 30.5894 38.4469 30.6105C38.4636 30.621 38.4804 30.6315 38.4971 30.6415V30.6914C38.4896 30.7019 38.4821 30.7119 38.4747 30.7217L38.4746 30.7218C38.4574 30.7447 38.4409 30.7667 38.4268 30.7912C37.5381 32.4923 36.4135 34.0238 35.0228 35.3508C32.4521 37.8052 29.4046 39.3417 25.8951 39.9603C25.4308 40.0417 24.9619 40.0931 24.4947 40.1444L24.4945 40.1444L24.4942 40.1444C24.2744 40.1685 24.055 40.1926 23.8366 40.2197C23.1839 40.2147 22.5312 40.2147 21.8785 40.2147ZM23.0492 29.2507C26.6862 29.2507 29.6346 26.3041 29.6346 22.6693C29.6346 19.0345 26.6862 16.0879 23.0492 16.0879C19.4122 16.0879 16.4639 19.0345 16.4639 22.6693C16.4639 26.3041 19.4122 29.2507 23.0492 29.2507Z" fill="#6D37FF"/>
</svg>
