<svg width="159" height="48" viewBox="0 0 159 48" fill="none" xmlns="http://www.w3.org/2000/svg">
<path fill-rule="evenodd" clip-rule="evenodd" d="M22.0025 46.0953H3.19292C1.82783 46.0953 1.03418 44.889 1.03418 43.8255C1.03418 43.1905 1.28815 42.635 1.70085 42.2223L9.90723 34.0159L22.0025 46.0953Z" fill="#FF4F12"/>
<path fill-rule="evenodd" clip-rule="evenodd" d="M3.19322 46.0954C1.76464 46.0954 0.00272818 44.9526 0.00272818 42.6986V17.4128C0.00272818 14.0001 -0.171876 11.5873 2.27258 9.15876L11.4155 0L27.6536 16.2699L1.70115 42.2224C1.28845 42.6351 1.03448 43.2065 1.03448 43.8256C1.03448 44.8891 1.82813 46.0954 3.19322 46.0954Z" fill="#70f"/>
<path fill-rule="evenodd" clip-rule="evenodd" d="M32.1392 39.5555H33.3296V44.3651C33.3931 44.2222 33.6154 43.8571 33.6154 43.8571L36.2662 39.5555H37.5201V46.1111H36.3297V41.2698C36.2662 41.4127 36.0439 41.7777 36.0439 41.7777L33.3931 46.0952H32.1392V39.5555Z" fill="#312D2C"/>
<path fill-rule="evenodd" clip-rule="evenodd" d="M38.4092 41.4604H39.5838V43.1905H41.5044V41.4604H42.679V46.0953H41.5044V44.2223H39.5838V46.0953H38.4092V41.4604Z" fill="#312D2C"/>
<path fill-rule="evenodd" clip-rule="evenodd" d="M46.8219 46.1905V48H45.6791V46.1905C44.2346 46.0159 43.2505 45.127 43.2505 43.7778C43.2505 42.4285 44.2346 41.5397 45.6791 41.365V39.5555H46.8219V41.365C48.2664 41.5397 49.2505 42.4285 49.2505 43.7778C49.2505 45.127 48.2823 46.0159 46.8219 46.1905ZM45.6791 45.0793V42.4762C44.9172 42.6031 44.441 43.0158 44.441 43.7778C44.4568 44.5397 44.933 44.9524 45.6791 45.0793ZM48.06 43.7778C48.06 43.0158 47.5838 42.6031 46.8219 42.4762V45.0793C47.5838 44.9524 48.06 44.5397 48.06 43.7778Z" fill="#312D2C"/>
<path fill-rule="evenodd" clip-rule="evenodd" d="M52.1076 46.2222C50.8377 46.2222 49.5679 45.3968 49.5679 43.7778C49.5679 42.1428 50.8377 41.3333 52.1076 41.3333C53.3774 41.3333 54.6473 42.1587 54.6473 43.7778C54.6473 45.4127 53.3774 46.2222 52.1076 46.2222ZM53.4568 43.7778C53.4568 42.9206 52.806 42.4286 52.1234 42.4286C51.4409 42.4286 50.7901 42.9206 50.7901 43.7778C50.7901 44.6349 51.4409 45.127 52.1234 45.127C52.806 45.127 53.4568 44.6349 53.4568 43.7778Z" fill="#312D2C"/>
<path fill-rule="evenodd" clip-rule="evenodd" d="M56.4415 41.4603V42.127C56.743 41.6825 57.3462 41.3333 58.0446 41.3333C59.2034 41.3333 60.1716 42.2381 60.1716 43.7778C60.1716 45.2698 59.1716 46.2222 57.9335 46.2222C57.2827 46.2222 56.7589 45.9365 56.4256 45.5238V48H55.251V41.4444H56.4415V41.4603ZM56.3621 43.7778C56.3621 44.5397 56.9176 45.127 57.6796 45.127C58.4415 45.127 58.997 44.5397 58.997 43.7778C58.997 43.0159 58.4415 42.4286 57.6796 42.4286C56.9176 42.4286 56.3621 43.0159 56.3621 43.7778Z" fill="#312D2C"/>
<path fill-rule="evenodd" clip-rule="evenodd" d="M60.7427 41.4604H62.2824L63.5681 44.7144L64.8538 41.4604H66.3935V46.0953H65.2665V43.1588L64.0284 46.0953H63.1078L61.8697 43.1588V46.0953H60.7427V41.4604Z" fill="#312D2C"/>
<path fill-rule="evenodd" clip-rule="evenodd" d="M70.076 45.3652C69.7426 45.9525 69.1871 46.2382 68.5204 46.2382C67.5998 46.2382 66.9648 45.6668 66.9648 44.7938C66.9648 43.8414 67.6791 43.4128 68.6156 43.2858L70.0125 43.0953V42.8572C70.0125 42.4128 69.7268 42.1588 69.1395 42.1588C68.6315 42.1588 68.3299 42.3969 68.3299 42.6826C68.3299 42.7144 68.3299 42.7779 68.3458 42.8096L67.2347 42.9366C67.2188 42.8572 67.2188 42.762 67.2188 42.6985C67.2188 41.9842 67.9331 41.3493 69.1553 41.3493C70.4569 41.3493 71.203 41.9049 71.203 43.0319V44.9684C71.203 45.4763 71.2506 45.7938 71.3458 46.1112H70.1712C70.1236 45.9049 70.076 45.6509 70.076 45.3652ZM70.0125 43.9842V43.9049L68.8855 44.0636C68.3775 44.143 68.1077 44.3334 68.1077 44.7144C68.1077 45.0954 68.4093 45.27 68.7744 45.27C69.4569 45.27 70.0125 44.889 70.0125 43.9842Z" fill="#312D2C"/>
<path fill-rule="evenodd" clip-rule="evenodd" d="M75.6792 46.095H71.8696V41.46H73.0442V45.0315H74.8855V41.46H76.0601V45.0315H76.7585V47.1902H75.695V46.095H75.6792Z" fill="#312D2C"/>
<path fill-rule="evenodd" clip-rule="evenodd" d="M77.0918 41.4604H78.2188V44.5239L80.2347 41.4604H81.4569V46.0953H80.3299V43.0318L78.314 46.0953H77.0918V41.4604Z" fill="#312D2C"/>
<path fill-rule="evenodd" clip-rule="evenodd" d="M84.5524 46.2222C83.2825 46.2222 82.0127 45.3968 82.0127 43.7778C82.0127 42.1428 83.2825 41.3333 84.5524 41.3333C85.8222 41.3333 87.0921 42.1587 87.0921 43.7778C87.0921 45.4127 85.8222 46.2222 84.5524 46.2222ZM85.9016 43.7778C85.9016 42.9206 85.2508 42.4286 84.5683 42.4286C83.8857 42.4286 83.2349 42.9206 83.2349 43.7778C83.2349 44.6349 83.8857 45.127 84.5683 45.127C85.2508 45.127 85.9016 44.6349 85.9016 43.7778Z" fill="#312D2C"/>
<path fill-rule="evenodd" clip-rule="evenodd" d="M87.6475 41.4604H88.8221V43.1905H90.7427V41.4604H91.9173V46.0953H90.7427V44.2223H88.8221V46.0953H87.6475V41.4604Z" fill="#312D2C"/>
<path fill-rule="evenodd" clip-rule="evenodd" d="M92.6953 41.4604H93.8699V43.1905H95.8064V41.4604H96.981V46.0953H95.8064V44.2223H93.8858V46.0953H92.7112V41.4604H92.6953Z" fill="#312D2C"/>
<path fill-rule="evenodd" clip-rule="evenodd" d="M97.7427 41.4604H98.9173V42.9683H99.8538C100.933 42.9683 101.695 43.4763 101.695 44.5239C101.695 45.5715 100.933 46.0794 99.8538 46.0794H97.7427V41.4604ZM99.7744 45.2064C100.346 45.2064 100.568 44.9207 100.568 44.5398C100.568 44.1588 100.346 43.8731 99.7744 43.8731H98.9173V45.2064H99.7744ZM103.378 41.4604V46.0953H102.203V41.4604H103.378Z" fill="#312D2C"/>
<path fill-rule="evenodd" clip-rule="evenodd" d="M106.346 45.2222C106.965 45.2222 107.235 44.9524 107.521 44.5873L108.457 45.0476C107.997 45.8413 107.346 46.2222 106.33 46.2222C105.044 46.2222 103.949 45.2381 103.949 43.7778C103.949 42.3016 105.044 41.3333 106.394 41.3333C107.727 41.3333 108.664 42.3016 108.664 43.6508V44.0635H105.092C105.14 44.7619 105.648 45.2222 106.346 45.2222ZM105.092 43.1587H107.552C107.441 42.5714 106.997 42.2222 106.346 42.2222C105.727 42.2222 105.267 42.6349 105.092 43.1587Z" fill="#312D2C"/>
<path d="M112.67 46.0802V40.8088H110.719V39.6961H115.826V40.8088H113.874V46.0802H112.67Z" fill="#312D2C"/>
<path fill-rule="evenodd" clip-rule="evenodd" d="M117.536 45.2222C118.156 45.2222 118.425 44.9524 118.711 44.5873L119.648 45.0476C119.187 45.8413 118.536 46.2222 117.521 46.2222C116.235 46.2222 115.14 45.2381 115.14 43.7778C115.14 42.3016 116.235 41.3333 117.584 41.3333C118.917 41.3333 119.854 42.3016 119.854 43.6508V44.0635H116.283C116.346 44.7619 116.854 45.2222 117.536 45.2222ZM116.283 43.1587H118.743C118.632 42.5714 118.187 42.2222 117.536 42.2222C116.933 42.2222 116.457 42.6349 116.283 43.1587Z" fill="#312D2C"/>
<path fill-rule="evenodd" clip-rule="evenodd" d="M122.759 41.4604H124.124L122.679 43.6191L124.314 46.0953H122.933L121.981 44.5715L121.013 46.0953H119.664L121.362 43.6509L119.87 41.4604H121.219L121.997 42.6985L122.759 41.4604Z" fill="#312D2C"/>
<path fill-rule="evenodd" clip-rule="evenodd" d="M124.584 41.4604H125.759V43.1905H127.68V41.4604H128.854V46.0953H127.68V44.2223H125.759V46.0953H124.584V41.4604Z" fill="#312D2C"/>
<path fill-rule="evenodd" clip-rule="evenodd" d="M131.965 46.2222C130.695 46.2222 129.425 45.3968 129.425 43.7778C129.425 42.1428 130.695 41.3333 131.965 41.3333C133.235 41.3333 134.505 42.1587 134.505 43.7778C134.489 45.4127 133.235 46.2222 131.965 46.2222ZM133.298 43.7778C133.298 42.9206 132.648 42.4286 131.965 42.4286C131.282 42.4286 130.632 42.9206 130.632 43.7778C130.632 44.6349 131.282 45.127 131.965 45.127C132.648 45.127 133.298 44.6349 133.298 43.7778Z" fill="#312D2C"/>
<path fill-rule="evenodd" clip-rule="evenodd" d="M134.6 46.095V45.0632C134.6 45.0632 134.727 45.1267 134.933 45.1267C135.219 45.1267 135.362 44.9362 135.41 44.0949L135.552 41.46H139.203V46.095H138.029V42.5235H136.584L136.505 44.1267C136.441 45.46 136.06 46.1584 135.013 46.1584C134.806 46.1584 134.6 46.095 134.6 46.095Z" fill="#312D2C"/>
<path fill-rule="evenodd" clip-rule="evenodd" d="M142.315 46.2222C141.045 46.2222 139.775 45.3968 139.775 43.7778C139.775 42.1428 141.045 41.3333 142.315 41.3333C143.584 41.3333 144.854 42.1587 144.854 43.7778C144.838 45.4127 143.584 46.2222 142.315 46.2222ZM143.648 43.7778C143.648 42.9206 142.997 42.4286 142.315 42.4286C141.632 42.4286 140.981 42.9206 140.981 43.7778C140.981 44.6349 141.632 45.127 142.315 45.127C142.997 45.127 143.648 44.6349 143.648 43.7778Z" fill="#312D2C"/>
<path fill-rule="evenodd" clip-rule="evenodd" d="M145.41 41.4604H148.584V42.5239H146.584V46.0953H145.41V41.4604Z" fill="#312D2C"/>
<path fill-rule="evenodd" clip-rule="evenodd" d="M149.14 41.4604H150.267V44.5239L152.283 41.4604H153.505V46.0953H152.378V43.0318L150.362 46.0953H149.14V41.4604Z" fill="#312D2C"/>
<path fill-rule="evenodd" clip-rule="evenodd" d="M154.251 41.4604H155.378V44.5239L157.394 41.4604H158.616V46.0953H157.489V43.0318L155.473 46.0953H154.251V41.4604Z" fill="#312D2C"/>
<path fill-rule="evenodd" clip-rule="evenodd" d="M110.838 25.8252H108.124L104.87 29.1109V25.8252H102.568V34.8728H104.87V31.1268L108.172 34.8728H110.949L106.679 30.0157L110.838 25.8252Z" fill="#312D2C"/>
<path fill-rule="evenodd" clip-rule="evenodd" d="M37.9487 22.095H32.1392V34.8728H34.5519V30.4125H37.9487C40.8376 30.4125 42.7265 28.9363 42.7265 26.2537C42.7265 23.5712 40.8217 22.095 37.9487 22.095ZM37.8693 28.2696H34.5519V24.2537H37.8693C39.5519 24.2537 40.3138 25.0632 40.3138 26.2537C40.3138 27.4601 39.5519 28.2696 37.8693 28.2696Z" fill="#312D2C"/>
<path fill-rule="evenodd" clip-rule="evenodd" d="M48.1711 25.5714C45.6949 25.5714 43.2188 27.1745 43.2188 30.3491C43.2188 33.5238 45.6791 35.1269 48.1711 35.1269C50.6473 35.1269 53.1235 33.5238 53.1235 30.3491C53.1077 27.1745 50.6473 25.5714 48.1711 25.5714ZM48.1711 32.9841C46.8219 32.9841 45.568 32.0158 45.568 30.3491C45.568 28.6825 46.8219 27.7142 48.1711 27.7142C49.5204 27.7142 50.7743 28.6825 50.7743 30.3491C50.7743 32.0158 49.5204 32.9841 48.1711 32.9841Z" fill="#312D2C"/>
<path fill-rule="evenodd" clip-rule="evenodd" d="M58.9804 32.984C57.5995 32.984 56.5677 31.984 56.5677 30.3491C56.5677 28.7459 57.6312 27.7142 58.9804 27.7142C59.8058 27.7142 60.5201 28.0951 61.0757 28.9523L63.0439 27.8253C62.3931 26.4126 60.9646 25.5554 58.9963 25.5554C56.4249 25.5554 54.2344 27.4602 54.2344 30.3332C54.2344 33.2221 56.3137 35.111 58.9963 35.111C60.9328 35.111 62.2185 34.238 63.1392 32.6824L61.2344 31.6348C60.6947 32.4285 60.1074 32.984 58.9804 32.984Z" fill="#312D2C"/>
<path fill-rule="evenodd" clip-rule="evenodd" d="M83.4569 30.9522C83.3458 32.3332 83.076 32.6506 82.5998 32.6506C82.2823 32.6506 82.1236 32.6189 81.9014 32.5554L81.9172 34.9046C81.9172 34.9046 82.2029 34.984 82.7268 34.984C84.6791 34.984 85.4093 33.73 85.5998 31.0474L85.822 27.8887H88.4093V34.857H90.7109V25.8252H83.8538L83.4569 30.9522Z" fill="#312D2C"/>
<path fill-rule="evenodd" clip-rule="evenodd" d="M76.9328 25.5714C74.2979 25.5714 72.1709 27.492 72.1709 30.3491C72.1709 33.2222 74.3138 35.1269 76.8217 35.1269C78.8059 35.1269 80.0757 34.3809 80.9805 32.8253L79.1551 31.9206C78.5836 32.6349 78.0757 33.1587 76.8535 33.1587C75.5043 33.1587 74.5201 32.2857 74.3773 30.8888H81.3614V30.0793C81.3614 27.4444 79.536 25.5714 76.9328 25.5714ZM74.4249 29.1428C74.7582 28.1269 75.663 27.3174 76.8693 27.3174C78.1392 27.3174 79.0122 28.0158 79.2186 29.1428H74.4249Z" fill="#312D2C"/>
<path fill-rule="evenodd" clip-rule="evenodd" d="M96.7585 25.5714C94.1236 25.5714 91.9966 27.492 91.9966 30.3491C91.9966 33.2222 94.1394 35.1269 96.6474 35.1269C98.6315 35.1269 99.9014 34.3809 100.806 32.8253L98.9807 31.9206C98.4093 32.6349 97.9014 33.1587 96.6791 33.1587C95.3299 33.1587 94.3458 32.2857 94.2029 30.8888H101.171V30.0793C101.171 27.4444 99.3458 25.5714 96.7585 25.5714ZM94.2347 29.1428C94.568 28.1269 95.4728 27.3174 96.6791 27.3174C97.949 27.3174 98.822 28.0158 99.0284 29.1428H94.2347Z" fill="#312D2C"/>
<path fill-rule="evenodd" clip-rule="evenodd" d="M63.8535 27.8252H66.5519V34.8728H68.8535V27.8252H71.552V25.8252H63.8535V27.8252Z" fill="#312D2C"/>
<path fill-rule="evenodd" clip-rule="evenodd" d="M115.521 25.5714C113.045 25.5714 110.568 27.1745 110.568 30.3491C110.568 33.5238 113.029 35.1269 115.521 35.1269C118.013 35.1269 120.473 33.5238 120.473 30.3491C120.457 27.1745 117.997 25.5714 115.521 25.5714ZM115.521 32.9841C114.172 32.9841 112.918 32.0158 112.918 30.3491C112.918 28.6825 114.172 27.7142 115.521 27.7142C116.87 27.7142 118.124 28.6825 118.124 30.3491C118.124 32.0158 116.87 32.9841 115.521 32.9841Z" fill="#312D2C"/>
<path fill-rule="evenodd" clip-rule="evenodd" d="M129.616 25.8252L127.108 32.1585L124.616 25.8252H121.616V34.857H123.806V29.1427L126.219 34.857H128.013L130.425 29.1427V34.857H132.616V25.8252H129.616Z" fill="#312D2C"/>
</svg>
