<?xml version="1.0" encoding="UTF-8"?> <svg xmlns="http://www.w3.org/2000/svg" width="161" height="53" viewBox="0 0 161 53" fill="none"> <g clip-path="url(#clip0)"> <path d="M25.3497 14.3563C25.3497 7.69059 21.109 3.70319 13.327 3.70319H0.0259101V38.4873H7.56607V25.1128H13.9316C17.7492 25.1128 20.608 24.0449 22.4909 21.8832C24.3486 19.8161 25.365 17.1318 25.3412 14.3563H25.3497ZM1.33874 49.0802H3.52392V48.1673H0V52.8007H1.33011V49.0802H1.33874ZM14.7262 49.64C14.7262 48.7357 14.1734 48.1673 12.9988 48.1673H11.0382V52.8007H12.3942V51.0782H13.1111C13.3316 51.0943 13.553 51.0642 13.7612 50.9902C13.9695 50.916 14.1598 50.7994 14.3202 50.6476C14.4572 50.5092 14.5652 50.3452 14.6379 50.1647C14.7105 49.9843 14.7464 49.7913 14.7434 49.5969L14.7262 49.64ZM12.7828 49.0802C12.8625 49.0717 12.943 49.0812 13.0183 49.1083C13.0937 49.1354 13.1618 49.1793 13.2176 49.2365C13.2735 49.2938 13.3154 49.3631 13.3403 49.439C13.3652 49.5148 13.3725 49.5953 13.3615 49.6745C13.3706 49.7502 13.3629 49.827 13.3387 49.8994C13.3146 49.9717 13.2746 50.0379 13.2218 50.0931C13.1689 50.1483 13.1045 50.191 13.0331 50.2184C12.9617 50.2458 12.8851 50.2571 12.8088 50.2515H12.3942V49.0802H12.7828ZM22.966 48.2191H21.6359L23.3633 51.8361C23.4323 51.9739 23.1992 52.0514 23.0437 52.0514C22.8548 52.0452 22.6669 52.0222 22.4823 51.9825L22.3095 52.8437C22.6577 52.9445 23.018 52.9967 23.3806 52.9987C23.6325 53.0105 23.8815 52.9404 24.0902 52.7992C24.2988 52.6579 24.456 52.453 24.5379 52.215L26.2135 48.1673H24.9179L24.3565 49.6572L24.0456 50.5185H23.9937L22.966 48.1415V48.2191ZM37.7612 48.2191H33.5464V52.8523H34.8506V49.0802H36.3793V52.792H37.7267V48.1673L37.7612 48.2191ZM49.7582 48.2191H45.5433V52.8523H46.882V49.0802H48.4107V52.792H49.7582V48.1673V48.2191ZM61.9105 52.8523L60.3558 48.2191H58.6802L57.0479 52.8523H58.3606L58.663 51.905H60.2608L60.5458 52.8523H61.9105ZM59.7339 50.0706L60.0104 51.0437H58.9393L59.2157 50.1051L59.4662 49.0802L59.6908 50.0362L59.7339 50.0706ZM75.7212 50.3979C75.8744 50.3196 76.0087 50.2089 76.1145 50.0736C76.2205 49.9382 76.2955 49.7814 76.3344 49.6142L76.7058 48.2362H75.4448L75.1253 49.4075C75.1036 49.5727 75.0187 49.7233 74.8883 49.8276C74.7579 49.932 74.5921 49.982 74.4257 49.9673H74.037V48.2191H72.681V52.8351H73.9938V50.8543H74.4257C74.5933 50.8432 74.7591 50.8943 74.8914 50.9975C75.0237 51.1009 75.1131 51.2492 75.1425 51.4142L75.5311 52.8007H76.8872L76.4381 51.2074C76.4144 51.0089 76.3332 50.8217 76.2043 50.6687C76.0755 50.5157 75.9046 50.4036 75.7125 50.3462L75.7212 50.3979ZM88.9532 50.5185C88.979 49.8914 88.7696 49.2773 88.3658 48.7961C87.8908 48.3723 87.2758 48.1382 86.6384 48.1382C86.0011 48.1382 85.3861 48.3723 84.9111 48.7961C84.5279 49.2971 84.3203 49.9099 84.3203 50.54C84.3203 51.1701 84.5279 51.7828 84.9111 52.2839C85.1369 52.507 85.4077 52.6798 85.7054 52.7911C86.0031 52.9024 86.3211 52.9498 86.6384 52.9298C86.9573 52.9503 87.2768 52.9016 87.5751 52.7872C87.8732 52.6727 88.1431 52.4951 88.3658 52.2666C88.7819 51.7909 89.0011 51.1752 88.979 50.5443L88.9532 50.5185ZM87.5281 50.5185C87.5281 51.4916 87.2258 51.9825 86.6211 51.9825C86.0165 51.9825 85.6884 51.4916 85.6884 50.5271C85.6884 49.5625 85.9993 49.0457 86.6211 49.0457C87.243 49.0457 87.5281 49.6142 87.5281 50.5185ZM100.769 52.8437H102.073V48.1673H100.432L99.784 49.7606L99.3522 50.8974H99.2917L98.9031 49.8295L98.2726 48.1673H96.5451V52.8007H97.9012V50.0706L98.2898 51.0868L98.7822 52.327H99.8272L100.32 51.1471L100.743 50.0792V52.8007L100.769 52.8437ZM114.001 48.2104H109.786V52.8437H111.125V49.0802H112.653V52.792H114.001V48.1673V48.2104ZM126.153 52.8437L124.598 48.2104H122.948L121.316 52.8437H122.629L122.931 51.8963H124.529L124.814 52.8437H126.153ZM123.968 50.062L124.245 51.0352H123.173L123.45 50.0964L123.7 49.1061L123.925 50.062H123.968ZM137.217 48.2191H135.904V49.9414H134.349V49.0802C134.349 48.6841 134.349 48.3913 134.349 48.2191H133.01V52.8437H134.349C134.349 52.6284 134.349 52.3097 134.349 51.8792V50.8543H135.904V52.8007H137.252V48.176L137.217 48.2191ZM146.58 50.3548L146.174 51.0093V49.5711C146.174 48.9424 146.174 48.486 146.174 48.176H144.843V52.8007H146.174L146.796 51.8103L147.849 50.0879V52.7834H149.153V48.176H147.849L146.554 50.3118L146.58 50.3548ZM158.041 50.3548L157.635 51.0093V49.5711C157.635 48.9424 157.635 48.486 157.635 48.176H156.288V52.8007H157.618L158.24 51.8103L159.294 50.0879V52.7834H160.598V48.176H159.294L157.998 50.3118L158.041 50.3548ZM158.37 47.8228C158.678 47.7992 158.975 47.6974 159.234 47.5271C159.493 47.3569 159.703 47.1237 159.846 46.8497L159.466 46.5138C159.283 46.6802 159.083 46.8273 158.87 46.9531C158.805 46.9893 158.736 47.0155 158.663 47.0306C158.575 47.0457 158.484 47.0457 158.395 47.0306C158.207 47.0046 158.027 46.938 157.867 46.8353C157.707 46.7326 157.573 46.5965 157.471 46.4363L156.988 46.7981C157.113 47.0653 157.305 47.2958 157.545 47.4678C157.786 47.6397 158.066 47.7471 158.36 47.7798L158.37 47.8228ZM12.256 8.95656C15.5726 8.95656 18.086 10.722 18.086 14.5114C18.086 18.3007 15.4949 20.0144 12.5065 20.0144H7.56607V8.95656H12.256ZM43.1508 9.11158H51.9087L52.2283 3.71181H26.3171V9.11158H35.6539V38.4529H43.0903L43.1422 9.11158H43.1508ZM80.1434 3.71181H58.0238L57.4106 13.7707C57.3674 14.5114 57.3502 15.0367 57.307 15.7428C56.5901 28.7729 55.9078 31.7268 48.7217 34.5086L50.7341 40.0892C53.7401 39.584 56.5454 38.254 58.8357 36.2482C63.0074 32.7087 64.0784 22.6067 64.3634 17.1036L64.6139 12.1516L64.7694 8.97379H72.5946L72.6463 38.4702H80.1347V3.70319L80.1434 3.71181ZM106.858 21.7972C106.858 15.6826 103.403 13.1851 97.0202 13.1851C93.2981 13.1326 89.6043 13.8359 86.1634 15.252L85.7747 15.4243L87.3294 19.7303C89.8926 18.8851 92.5758 18.4576 95.2755 18.4643C98.7908 18.4643 99.9136 19.7475 99.9136 22.7703V23.3732L96.4588 23.5798L93.0039 23.778C87.5366 24.1052 83.8227 26.8353 83.8227 31.7355C83.8227 34.6119 85.4033 38.961 91.5962 38.961C94.76 39.0435 97.8405 37.9437 100.233 35.8779L100.337 35.9812C100.415 37.7036 100.639 38.4529 103.524 38.4529H106.858V21.7799V21.7972ZM99.9481 32.1317C98.2639 33.5957 95.0164 34.3536 93.2803 34.3536C90.9915 34.3536 89.8255 33.2943 89.8255 31.1758C89.8255 29.0571 90.9915 27.9376 93.3407 27.7911L99.9049 27.3864V32.1317H99.9481ZM122.888 4.40077C116.842 6.70019 113.189 10.5756 111.885 15.5965C111.366 17.5687 111.073 21.0479 111.073 25.9309C111.073 32.7517 113.871 38.9094 123.406 38.9094C127.725 38.9094 130.956 37.6951 133.037 35.3267C135.174 32.8454 136.301 29.6563 136.198 26.3874C136.198 18.8604 132.933 14.1669 125.444 14.1669C123.935 14.1087 122.432 14.4077 121.06 15.0393C119.688 15.6711 118.486 16.6173 117.551 17.8012C117.494 17.746 117.421 17.71 117.344 17.6979C118.414 13.9602 119.606 12.8148 122.526 11.1268C123.605 10.5067 124.529 9.99862 125.281 9.66275C126.032 9.32688 127.25 8.80155 128.735 8.1987C132.882 6.39016 133.917 4.24575 131.992 0C130.002 1.28997 127.908 2.41064 125.729 3.3501L122.923 4.40938L122.888 4.40077ZM123.812 18.9379C127.078 18.9379 128.7 21.4096 128.7 26.4132C128.7 31.4169 126.973 33.8455 123.605 33.8368C119.131 33.8368 118.354 30.2542 118.354 26.663C118.319 24.7866 118.794 22.9359 119.727 21.3062C120.119 20.5714 120.709 19.9601 121.431 19.5418C122.153 19.1233 122.977 18.9142 123.812 18.9379ZM146.822 26.0085C146.822 21.3666 149.015 18.6365 153.04 18.6365C154.881 18.6281 156.713 18.8657 158.49 19.3427C159.232 19.1791 160.943 16.1735 160.771 15.0367C160.719 14.718 160.287 14.5544 159.614 14.2703C157.109 13.4294 154.481 13.0188 151.839 13.0559C146.994 13.0559 143.496 14.7784 141.804 17.5514C140.199 20.1811 139.387 23.2154 139.463 26.2927C139.463 33.1824 141.959 38.8147 151.554 38.8147C154.796 38.9196 158.016 38.2586 160.951 36.8856C160.951 35.5938 159.276 32.4761 156.538 32.9412C155.322 33.1788 154.089 33.3171 152.85 33.3546C148.531 33.3546 146.804 30.8313 146.804 26.0343L146.822 26.0085Z" fill="white"></path> </g> <defs> <clipPath id="clip0"> <rect width="161" height="53" fill="white"></rect> </clipPath> </defs> </svg> 